<svg width="184" height="28" viewBox="0 0 184 28" fill="none" xmlns="http://www.w3.org/2000/svg">
<path fill-rule="evenodd" clip-rule="evenodd" d="M51 9.5H60.8134C63.1759 9.5 64.3208 10.5931 64.3208 12.9304V15.0633C64.3208 16.5564 63.9119 17.525 62.5035 17.9961C64.0573 18.3515 64.5389 19.5691 64.5389 20.9377V23.4705C64.5389 25.7812 63.4031 26.9009 61.0315 26.9009H51.0363L51 9.5ZM59.614 16.3875C59.9775 16.3875 60.1047 16.2631 60.1047 15.9165V13.4014C60.1047 13.0282 59.9775 12.9304 59.614 12.9304H55.2161V16.3875H59.614ZM59.823 23.4972C60.1774 23.4972 60.3046 23.3727 60.3046 23.0262V20.0845C60.3046 19.7113 60.1774 19.6135 59.823 19.6135H55.2161V23.4705L59.823 23.4972ZM67.4557 9.5H71.6718V26.9098H67.4557V9.5ZM74.9066 12.9304V23.4705C74.9066 25.7811 76.0424 26.9098 78.414 26.9009H84.9926C87.3551 26.9009 88.5 25.7811 88.5 23.4705V17.0274H81.3035V20.44H84.302V22.8751C84.302 23.2217 84.1839 23.3461 83.8295 23.3461H79.6043C79.2499 23.3461 79.1227 23.2217 79.1227 22.8751V13.5259C79.1227 13.1526 79.2499 13.0548 79.6043 13.0548H83.8295C84.1839 13.0548 84.302 13.1526 84.302 13.5259V15.2411H88.5V12.9304C88.5 10.5931 87.3551 9.5 84.9926 9.5H78.414C76.0424 9.5 74.9066 10.5931 74.9066 12.9304Z" fill="#E00087"/>
<path fill-rule="evenodd" clip-rule="evenodd" d="M95.7375 22.9055H101.303L102.315 26.5H106.754L101.428 9.5H95.7375L90.5 26.5087H94.7699L95.7375 22.9055ZM98.5871 12.7819L100.363 19.4326H96.7406L98.5871 12.7819ZM112.906 9.5H108.707V26.5087H112.711V15.9683L119.209 26.5087H123.035V9.5H119.04V19.476L112.906 9.5ZM126.523 9.5H130.642V26.5087H126.523V9.5ZM138.712 9.5H134.122V26.5087H138.046V16.1767L141.544 24.3381H144.269L147.766 16.1767V26.5087H151.788V9.5H147.225L142.991 18.9724L138.712 9.5ZM164.571 22.9055H159.032L158.046 26.5087H153.767L159.032 9.50867H164.722L170.048 26.5087H165.61L164.571 22.9055ZM163.63 19.4326L161.854 12.7819L160.017 19.4326H163.63ZM176.102 9.5H171.974V26.5087H183.328V22.9489H176.102V9.5Z" fill="white"/>
<path d="M31.1421 9.50769C30.8874 9.50769 30.6384 9.58142 30.4267 9.71955C30.2149 9.85768 30.0498 10.054 29.9524 10.2837C29.8549 10.5134 29.8294 10.7662 29.8791 11.01C29.9288 11.2539 30.0514 11.4779 30.2315 11.6537C30.4116 11.8295 30.6411 11.9492 30.8909 11.9977C31.1407 12.0462 31.3996 12.0213 31.6349 11.9262C31.8702 11.831 32.0713 11.6699 32.2128 11.4632C32.3543 11.2564 32.4298 11.0134 32.4298 10.7648C32.4298 10.4314 32.2942 10.1116 32.0527 9.87588C31.8112 9.64013 31.4836 9.50769 31.1421 9.50769V9.50769Z" fill="white"/>
<path d="M21.6483 22.6334C21.1282 22.6334 20.6133 22.7338 20.1332 22.9289C19.653 23.124 19.2171 23.4098 18.8506 23.77C18.4841 24.1302 18.1942 24.5576 17.9976 25.0277C17.801 25.4977 17.7016 26.001 17.7052 26.5087H25.6004C25.6027 26.0006 25.5022 25.4971 25.3046 25.027C25.1071 24.5569 24.8163 24.1296 24.4491 23.7695C24.0819 23.4094 23.6455 23.1237 23.1648 22.9287C22.6842 22.7338 22.1688 22.6334 21.6483 22.6334Z" fill="white"/>
<path d="M39.0234 11.7404C39.0303 9.48097 38.3248 7.27419 37.0028 5.41963C35.6807 3.56507 33.8061 2.15257 31.6333 1.37387C29.4606 0.595178 27.095 0.488015 24.8578 1.06693C22.6205 1.64585 20.6199 2.8828 19.1276 4.60987C18.1827 4.23887 17.1738 4.04786 16.1554 4.04716C15.122 4.04601 14.0986 4.24369 13.1436 4.62891C12.1886 5.01413 11.3207 5.57933 10.5897 6.2922C9.85858 7.00506 9.2786 7.85161 8.88289 8.78343C8.48718 9.71526 8.2835 10.7141 8.28351 11.7228V11.7228C6.19695 11.7566 4.20962 12.5982 2.7587 14.0624C1.30778 15.5266 0.512118 17.4935 0.546755 19.5303C0.581391 21.5672 1.44349 23.5072 2.94339 24.9236C4.4433 26.34 6.45815 27.1167 8.5447 27.0829H12.9039V16.4443C12.9039 15.2045 12.9039 10.0435 19.4518 10.0347V12.2152C19.491 13.2725 19.8157 14.301 20.3929 15.1965C20.9702 16.092 21.7797 16.8227 22.7393 17.3147L29.5033 20.4799C29.7619 20.5993 29.9823 20.7851 30.141 21.0174C30.2996 21.2497 30.3905 21.5198 30.4039 21.7987V27.0741H38.51C40.5525 27.0834 42.5186 26.3165 43.9921 24.9356C45.4655 23.5547 46.3307 21.6683 46.4045 19.6756C46.4782 17.683 45.7547 15.7405 44.3871 14.2595C43.0196 12.7784 41.1153 11.875 39.0774 11.7404H39.0234ZM36.5015 20.8404C36.0748 21.0618 35.6163 21.2189 35.1415 21.3064V25.1926H32.4845V21.8075C32.4447 21.1455 32.2328 20.5042 31.8688 19.9443C31.5048 19.3843 31.0007 18.9242 30.4039 18.6071L23.6489 15.4331C23.0514 15.1135 22.5475 14.6501 22.1849 14.0869C21.8224 13.5237 21.6132 12.8794 21.5774 12.2152V7.73991C21.5774 7.14296 21.8203 6.57045 22.2527 6.14834C22.6851 5.72623 23.2716 5.48909 23.8831 5.48909H28.6026C35.1685 5.48909 35.1685 10.6589 35.1685 11.8987V19.6622L35.5828 19.7238C36.6457 19.8103 37.7122 19.6063 38.6631 19.1347C38.0975 19.8684 37.3549 20.4543 36.5015 20.8404Z" fill="white"/>
</svg>
